<?xml version="1.0" encoding="UTF-8"?>
<!DOCTYPE svg PUBLIC "-//W3C//DTD SVG 1.1//EN" "http://www.w3.org/Graphics/SVG/1.1/DTD/svg11.dtd">
<svg version="1.1" id="Schriftzug" xmlns="http://www.w3.org/2000/svg" xmlns:xlink="http://www.w3.org/1999/xlink" x="0px" y="0px" width="150px" height="50px" viewBox="-72 395.9 150 50" style="enable-background:new -72 395.9 150 50;" xml:space="preserve">
<g>
	<path fill="#282828" d="M35.4,416.1c0-6.9-2.6-10.4-8.6-10.4c-3.9,0-6.8,1.6-9.2,4.9c-1.2-3.4-4.1-4.9-7.6-4.9c-3.5,0-6.2,1.5-8.2,4.4   l-7,10.4l7,9.9v-12.4c0-1.7,0.6-3,1.8-4.2c1.2-1.2,2.4-1.7,3.8-1.7c1.1,0,2,0.3,2.6,1c0.8,1,1,2.5,1,4v18.1h7.7v-17.6   c0-1.4,0.7-2.8,1.8-3.9c1.1-1.1,2.3-1.6,3.7-1.6c1.1,0,2.1,0.3,2.7,1.1c0.8,0.9,0.9,2.2,0.9,3.9v18.1h7.7L35.4,416.1L35.4,416.1z    M70.4,395.9H78v39.4h-7.6V395.9z M56.1,395.9h7.6v39.4h-7.6V395.9z M41.8,406.7h7.7v28.6h-7.7V406.7z M41.7,395.9h7.8v6.9h-7.9   L41.7,395.9L41.7,395.9z M-17.4,420.6l-8.8-13.9h9l8.4,13.9l-9.6,14.8h-8.8L-17.4,420.6z M-38.1,406.7h7.7v28.6h-7.7V406.7z    M-38.2,395.9h7.9v6.9h-7.9V395.9z M-64.4,421c0,3.3,0.4,5.9,2,7.4c1.2,1.1,2.9,1.5,4.2,1.5c1.9,0,3.4-0.5,4.6-2   c1.4-1.8,1.9-4.3,1.9-7c0-2.7-0.5-5.2-1.7-6.9c-1.2-1.5-2.8-2-4.4-2c-1.5,0-3.1,0.4-4.3,1.5C-64,415.2-64.4,417.6-64.4,421z    M-72,406.7h7.4v3.8c2.2-3.1,5.2-4.6,9.2-4.6c3.8,0,6.8,1.4,8.8,4.1c1.9,2.6,2.9,6.3,2.9,10.8c0,4.2-0.9,8.1-3.3,11.1   c-2.2,2.7-5.3,4.2-9.1,4.2c-3.2,0-5.9-1-8.2-3.9v13.6H-72V406.7z"/>
</g>
</svg>