<?xml version="1.0" encoding="UTF-8"?>
<svg width="230px" height="109px" viewBox="0 0 230 109" version="1.1" xmlns="http://www.w3.org/2000/svg" xmlns:xlink="http://www.w3.org/1999/xlink">
    <g stroke="none" stroke-width="1" fill="none" fill-rule="evenodd">
        <g transform="translate(-168.000000, -230.000000)">
            <g transform="translate(170.000000, 229.929100)">
                <path d="M64.3053,91.9849 L101.0701,87.6592 C101.0619,87.6065 101.0536,87.5526 101.0457,87.4999 C100.5649,84.3058 99.4705,81.5777 97.7201,79.3171 C95.9346,77.0216 93.6235,75.2902 90.7868,74.1076 C87.9502,72.9329 84.7116,72.3456 81.0711,72.3456 C77.0442,72.3456 73.4734,73.0489 70.3663,74.4477 C67.2513,75.8543 64.8399,77.8252 63.1315,80.3605 C61.4157,82.8958 60.5579,85.8099 60.5579,89.1023 C60.5579,92.3794 61.4157,95.2779 63.1315,97.8208 C64.8399,100.3561 67.2513,102.3271 70.3663,103.7415 C73.4734,105.1484 77.0442,105.8593 81.0711,105.8593 C83.9851,105.8593 86.6519,105.4806 89.0554,104.7232 C91.4671,103.9734 93.5308,102.8991 95.2619,101.5078 C96.9936,100.1166 98.3307,98.4858 99.2814,96.592 L95.7954,96.5688 C94.4197,98.625 92.4488,100.2325 89.8746,101.3843 C87.3011,102.5357 84.3638,103.1154 81.0711,103.1154 C77.7398,103.1154 74.7796,102.528 72.1981,101.361 C69.6166,100.194 67.6068,98.5476 66.177,96.4219 C65.262,95.0738 64.6381,93.5941 64.3053,91.9849 Z M136.0366,87.9871 C133.7156,87.9472 131.9255,87.3774 130.6522,86.2654 C127.9567,83.9268 127.9811,79.6403 130.6136,77.2694 C131.9116,76.1003 133.8057,75.515 136.3022,75.515 L162.9374,75.515 L162.9374,72.9326 L135.9155,72.9326 C133.6821,72.9326 131.773,73.3048 130.1884,74.0415 C128.6038,74.7859 127.3827,75.8719 126.5399,77.3071 C124.8253,80.2131 124.8207,83.4602 126.6097,86.3337 C127.4983,87.7689 128.7433,88.8324 130.3426,89.5312 C131.2806,89.936 132.307,90.224 133.4219,90.3926 C134.5878,90.5687 135.4696,90.5715 136.6092,90.5715 L152.1617,90.5715 C154.4825,90.6115 156.2725,91.1812 157.5459,92.293 C160.2413,94.6318 160.2169,98.9184 157.5844,101.2893 C156.2864,102.458 154.392,103.0437 151.8958,103.0437 L125.260836,103.0437 L125.260836,105.626 L152.2825,105.626 C154.5165,105.626 156.425,105.2535 158.0099,104.5171 C159.5942,103.7727 160.8156,102.6868 161.6581,101.2516 C163.3728,98.3455 163.3776,95.0981 161.5883,92.2249 C160.6997,90.7895 159.455,89.7262 157.8554,89.0275 C156.6408,88.5031 155.2793,88.1748 153.7681,88.0478 C152.9903,87.9826 152.3037,87.9871 151.5151,87.9871 L136.0366,87.9871 Z M19.966,106.1297 L0.7435,72.9329 L4.299,72.9329 L19.966,100.673 L35.5946,72.9329 L39.1268,72.9329 L19.966,106.1297 Z M215.1563,89.7982 C217.6066,89.7982 219.4846,89.2182 220.8064,88.0436 C222.1282,86.8763 222.7929,85.0986 222.7929,82.7102 C222.7929,80.3296 222.1437,78.5364 220.8449,77.3462 C219.5464,76.1559 217.6528,75.5606 215.1563,75.5606 L192.0381,75.5606 L192.0381,89.7982 L215.1563,89.7982 Z M215.5427,72.9329 C217.7767,72.9329 219.6855,73.3116 221.2704,74.0611 C222.8547,74.8188 224.0758,75.924 224.9183,77.385 C225.7608,78.838 226.186,80.6157 226.186,82.7102 C226.186,84.8591 225.7378,86.66 224.8489,88.113 C223.9599,89.574 222.7155,90.656 221.1156,91.3672 C219.5157,92.0705 217.6608,92.4259 215.5427,92.4259 L192.0381,92.4259 L192.0381,105.4265 L188.645,105.4265 L188.645,72.9329 L215.5427,72.9329 Z M97.0205,85.3881 L64.0215,89.2846 L64.0204,89.1023 C64.0204,85.7177 65.3992,82.124 67.9084,79.7037 C69.4388,78.2195 71.3324,77.0834 73.5817,76.2795 C75.8307,75.4835 78.3271,75.0816 81.0711,75.0816 C84.9823,75.0816 88.3213,75.9164 91.0961,77.5857 C93.863,79.2553 95.8033,81.7053 96.9006,84.9365 C96.9451,85.0938 96.9845,85.2438 97.0205,85.3881 Z" fill="#000" />
                <path d="M64.3053,91.9849 L101.0701,87.6592 C101.0619,87.6065 101.0536,87.5526 101.0457,87.4999 C100.5649,84.3058 99.4705,81.5777 97.7201,79.3171 C95.9346,77.0216 93.6235,75.2902 90.7868,74.1076 C87.9502,72.9329 84.7116,72.3456 81.0711,72.3456 C77.0442,72.3456 73.4734,73.0489 70.3663,74.4477 C67.2513,75.8543 64.8399,77.8252 63.1315,80.3605 C61.4157,82.8958 60.5579,85.8099 60.5579,89.1023 C60.5579,92.3794 61.4157,95.2779 63.1315,97.8208 C64.8399,100.3561 67.2513,102.3271 70.3663,103.7415 C73.4734,105.1484 77.0442,105.8593 81.0711,105.8593 C83.9851,105.8593 86.6519,105.4806 89.0554,104.7232 C91.4671,103.9734 93.5308,102.8991 95.2619,101.5078 C96.9936,100.1166 98.3307,98.4858 99.2814,96.592 L95.7954,96.5688 C94.4197,98.625 92.4488,100.2325 89.8746,101.3843 C87.3011,102.5357 84.3638,103.1154 81.0711,103.1154 C77.7398,103.1154 74.7796,102.528 72.1981,101.361 C69.6166,100.194 67.6068,98.5476 66.177,96.4219 C65.262,95.0738 64.6381,93.5941 64.3053,91.9849 Z M136.0366,87.9871 C133.7156,87.9472 131.9255,87.3774 130.6522,86.2654 C127.9567,83.9268 127.9811,79.6403 130.6136,77.2694 C131.9116,76.1003 133.8057,75.515 136.3022,75.515 L162.9374,75.515 L162.9374,72.9326 L135.9155,72.9326 C133.6821,72.9326 131.773,73.3048 130.1884,74.0415 C128.6038,74.7859 127.3827,75.8719 126.5399,77.3071 C124.8253,80.2131 124.8207,83.4602 126.6097,86.3337 C127.4983,87.7689 128.7433,88.8324 130.3426,89.5312 C131.2806,89.936 132.307,90.224 133.4219,90.3926 C134.5878,90.5687 135.4696,90.5715 136.6092,90.5715 L152.1617,90.5715 C154.4825,90.6115 156.2725,91.1812 157.5459,92.293 C160.2413,94.6318 160.2169,98.9184 157.5844,101.2893 C156.2864,102.458 154.392,103.0437 151.8958,103.0437 L125.260836,103.0437 L125.260836,105.626 L152.2825,105.626 C154.5165,105.626 156.425,105.2535 158.0099,104.5171 C159.5942,103.7727 160.8156,102.6868 161.6581,101.2516 C163.3728,98.3455 163.3776,95.0981 161.5883,92.2249 C160.6997,90.7895 159.455,89.7262 157.8554,89.0275 C156.6408,88.5031 155.2793,88.1748 153.7681,88.0478 C152.9903,87.9826 152.3037,87.9871 151.5151,87.9871 L136.0366,87.9871 Z M19.966,106.1297 L0.7435,72.9329 L4.299,72.9329 L19.966,100.673 L35.5946,72.9329 L39.1268,72.9329 L19.966,106.1297 Z M215.1563,89.7982 C217.6066,89.7982 219.4846,89.2182 220.8064,88.0436 C222.1282,86.8763 222.7929,85.0986 222.7929,82.7102 C222.7929,80.3296 222.1437,78.5364 220.8449,77.3462 C219.5464,76.1559 217.6528,75.5606 215.1563,75.5606 L192.0381,75.5606 L192.0381,89.7982 L215.1563,89.7982 Z M215.5427,72.9329 C217.7767,72.9329 219.6855,73.3116 221.2704,74.0611 C222.8547,74.8188 224.0758,75.924 224.9183,77.385 C225.7608,78.838 226.186,80.6157 226.186,82.7102 C226.186,84.8591 225.7378,86.66 224.8489,88.113 C223.9599,89.574 222.7155,90.656 221.1156,91.3672 C219.5157,92.0705 217.6608,92.4259 215.5427,92.4259 L192.0381,92.4259 L192.0381,105.4265 L188.645,105.4265 L188.645,72.9329 L215.5427,72.9329 Z M97.0205,85.3881 L64.0215,89.2846 L64.0204,89.1023 C64.0204,85.7177 65.3992,82.124 67.9084,79.7037 C69.4388,78.2195 71.3324,77.0834 73.5817,76.2795 C75.8307,75.4835 78.3271,75.0816 81.0711,75.0816 C84.9823,75.0816 88.3213,75.9164 91.0961,77.5857 C93.863,79.2553 95.8033,81.7053 96.9006,84.9365 C96.9451,85.0938 96.9845,85.2438 97.0205,85.3881 Z" stroke="#000" stroke-width="2.8346" />
                <path d="M116.8627,30.5039 L120.2266,24.6773 L123.5905,18.8507 L123.5942,18.8533 L123.5976,18.855 L126.9768,13.0026 L130.3559,7.1496 C132.1426,4.0643 129.2859,-0.1924 125.8849,1.2198 L113.2225,6.4783 L100.648,1.2561 C97.9554,0.1381 95.5164,2.4245 95.5164,5.0545 C95.5164,5.4888 95.5822,5.908 95.7049,6.3017 C95.8274,6.6957 96.0068,7.0645 96.2333,7.3993 L99.5402,13.127 L102.8474,18.855 C102.8687,18.8918 102.8908,18.9281 102.9129,18.9641 C102.9353,18.9998 102.958,19.0352 102.9812,19.0704 L106.2932,24.8077 L109.6058,30.5445 C110.1795,31.5434 111.1039,32.2149 112.1346,32.4933 C113.1652,32.7717 114.3019,32.6569 115.3009,32.0831 C115.6402,31.8881 115.9418,31.6525 116.2028,31.3861 C116.4639,31.1199 116.6847,30.8223 116.8627,30.5039 Z M90.4705,16.2474 L93.8344,22.074 L97.198,27.9006 L97.2016,27.898 L97.205,27.8963 L100.5845,33.7488 L103.9634,39.6017 C105.7504,42.687 102.8933,46.9437 99.4923,45.5315 L86.83,40.273 L74.2555,45.4952 C71.5631,46.6132 69.1239,44.3268 69.1239,41.6968 C69.1239,41.2626 69.19,40.8433 69.3127,40.4496 C69.4351,40.0556 69.6143,39.6868 69.8408,39.352 L73.148,33.6243 L76.4549,27.8963 C76.4764,27.8595 76.4982,27.8232 76.5206,27.7872 C76.543,27.7515 76.5654,27.7161 76.5887,27.6809 L79.9009,21.9436 L83.2132,16.2068 C83.7872,15.2079 84.7116,14.5364 85.7423,14.258 C86.773,13.9797 87.9097,14.0945 88.9083,14.6682 C89.2476,14.8632 89.5495,15.0988 89.8106,15.3652 C90.0717,15.6314 90.2925,15.929 90.4705,16.2474 Z M143.7632,16.2474 L147.1268,22.074 L150.491,27.9006 L150.4944,27.898 L150.4981,27.8963 L153.877,33.7488 L157.2562,39.6017 C159.0428,42.687 156.1861,46.9437 152.7851,45.5315 L140.1227,40.273 L127.5482,45.4952 C124.8556,46.6132 122.4167,44.3268 122.4167,41.6968 C122.4167,41.2626 122.4824,40.8433 122.6052,40.4496 C122.7276,40.0556 122.9071,39.6868 123.1335,39.352 L126.4404,33.6243 L129.7476,27.8963 C129.7689,27.8595 129.791,27.8232 129.8131,27.7872 C129.8355,27.7515 129.8582,27.7161 129.8814,27.6809 L133.1937,21.9436 L136.506,16.2068 C137.0797,15.2079 138.0041,14.5364 139.0348,14.258 C140.0654,13.9797 141.2024,14.0945 142.2011,14.6682 C142.5404,14.8632 142.842,15.0988 143.1031,15.3652 C143.3644,15.6314 143.5849,15.929 143.7632,16.2474 L143.7632,16.2474 Z" fill="#CC9933" />
            </g>
        </g>
    </g>
</svg>