<?xml version="1.0" encoding="UTF-8"?>
<svg width="328px" height="43px" viewBox="0 0 328 43" version="1.1" xmlns="http://www.w3.org/2000/svg" xmlns:xlink="http://www.w3.org/1999/xlink">
    <g stroke="none" stroke-width="1" fill="none" fill-rule="evenodd">
        <g transform="translate(-120.000000, -262.000000)">
            <g transform="translate(120.000000, 261.929100)">
                <path d="M164.6648,25.1445 L201.4295,20.8188 C201.4213,20.7661 201.4131,20.7123 201.4052,20.6595 C200.9244,17.4654 199.83,14.7374 198.0796,12.4768 C196.294,10.1813 193.9829,8.4499 191.1463,7.2672 C188.3097,6.0926 185.0711,5.5052 181.4306,5.5052 C177.4037,5.5052 173.8329,6.2085 170.7258,7.6074 C167.6108,9.014 165.1994,10.9849 163.4909,13.5202 C161.7751,16.0555 160.9174,18.9695 160.9174,22.262 C160.9174,25.5391 161.7751,28.4375 163.4909,30.9805 C165.1994,33.5158 167.6108,35.4867 170.7258,36.9012 C173.8329,38.308 177.4037,39.019 181.4306,39.019 C184.3446,39.019 187.0114,38.6403 189.4149,37.8828 C191.8266,37.1331 193.8902,36.0587 195.6214,34.6675 C197.353,33.2763 198.6901,31.6455 199.6409,29.7517 L196.1548,29.7284 C194.7792,31.7847 192.8083,33.3922 190.2341,34.5439 C187.6605,35.6953 184.7233,36.275 181.4306,36.275 C178.0993,36.275 175.1391,35.6877 172.5575,34.5207 C169.976,33.3536 167.9663,31.7073 166.5365,29.5816 C165.6214,28.2334 164.9975,26.7537 164.6648,25.1445 Z M236.396,21.1468 C234.075,21.1068 232.2849,20.5371 231.0116,19.425 C228.3162,17.0865 228.3405,12.7999 230.9731,10.429 C232.2711,9.26 234.1652,8.6746 236.6616,8.6746 L263.2968,8.6746 L263.2968,6.0923 L236.275,6.0923 C234.0416,6.0923 232.1324,6.4645 230.5479,7.2012 C228.9633,7.9456 227.7421,9.0315 226.8994,10.4667 C225.1847,13.3728 225.1802,16.6199 226.9691,19.4934 C227.8578,20.9285 229.1028,21.9921 230.7021,22.6908 C231.6401,23.0956 232.6665,23.3836 233.7814,23.5523 C234.9472,23.7283 235.8291,23.7311 236.9686,23.7311 L252.5212,23.7311 C254.8419,23.7711 256.632,24.3409 257.9053,25.4526 C260.6008,27.7915 260.5764,32.078 257.9439,34.4489 C256.6459,35.6177 254.7515,36.2033 252.2553,36.2033 L225.620286,36.2033 L225.620286,38.7857 L252.642,38.7857 C254.8759,38.7857 256.7845,38.4132 258.3694,37.6768 C259.9536,36.9324 261.1751,35.8464 262.0175,34.4112 C263.7322,31.5052 263.737,28.2578 261.9478,25.3846 C261.0591,23.9491 259.8145,22.8859 258.2149,22.1871 C257.0002,21.6627 255.6387,21.3345 254.1276,21.2075 C253.3498,21.1423 252.6632,21.1468 251.8746,21.1468 L236.396,21.1468 Z M120.3255,39.2894 L101.1029,6.0926 L104.6584,6.0926 L120.3255,33.8327 L135.954,6.0926 L139.4863,6.0926 L120.3255,39.2894 Z M315.5158,22.9579 C317.9661,22.9579 319.844,22.3779 321.1658,21.2032 C322.4876,20.0359 323.1523,18.2583 323.1523,15.8698 C323.1523,13.4893 322.5032,11.6961 321.2044,10.5058 C319.9058,9.3156 318.0123,8.7203 315.5158,8.7203 L292.3976,8.7203 L292.3976,22.9579 L315.5158,22.9579 Z M315.9022,6.0926 C318.1362,6.0926 320.045,6.4713 321.6299,7.2208 C323.2141,7.9785 324.4353,9.0837 325.2778,10.5447 C326.1202,11.9977 326.5454,13.7753 326.5454,15.8698 C326.5454,18.0188 326.0973,19.8196 325.2083,21.2727 C324.3194,22.7336 323.075,23.8156 321.4751,24.5268 C319.8752,25.2301 318.0202,25.5856 315.9022,25.5856 L292.3976,25.5856 L292.3976,38.5861 L289.0045,38.5861 L289.0045,6.0926 L315.9022,6.0926 Z M197.38,18.5477 L164.381,22.4442 L164.3799,22.262 C164.3799,18.8774 165.7586,15.2836 168.2679,12.8634 C169.7983,11.3792 171.6918,10.2431 173.9411,9.4391 C176.1901,8.6432 178.6866,8.2412 181.4306,8.2412 C185.3418,8.2412 188.6807,9.076 191.4556,10.7454 C194.2225,12.415 196.1628,14.8649 197.2601,18.0962 C197.3046,18.2535 197.344,18.4034 197.38,18.5477 Z" id="Fill-8" fill="#000000" />
                <path d="M164.6648,25.1445 L201.4295,20.8188 C201.4213,20.7661 201.4131,20.7123 201.4052,20.6595 C200.9244,17.4654 199.83,14.7374 198.0796,12.4768 C196.294,10.1813 193.9829,8.4499 191.1463,7.2672 C188.3097,6.0926 185.0711,5.5052 181.4306,5.5052 C177.4037,5.5052 173.8329,6.2085 170.7258,7.6074 C167.6108,9.014 165.1994,10.9849 163.4909,13.5202 C161.7751,16.0555 160.9174,18.9695 160.9174,22.262 C160.9174,25.5391 161.7751,28.4375 163.4909,30.9805 C165.1994,33.5158 167.6108,35.4867 170.7258,36.9012 C173.8329,38.308 177.4037,39.019 181.4306,39.019 C184.3446,39.019 187.0114,38.6403 189.4149,37.8828 C191.8266,37.1331 193.8902,36.0587 195.6214,34.6675 C197.353,33.2763 198.6901,31.6455 199.6409,29.7517 L196.1548,29.7284 C194.7792,31.7847 192.8083,33.3922 190.2341,34.5439 C187.6605,35.6953 184.7233,36.275 181.4306,36.275 C178.0993,36.275 175.1391,35.6877 172.5575,34.5207 C169.976,33.3536 167.9663,31.7073 166.5365,29.5816 C165.6214,28.2334 164.9975,26.7537 164.6648,25.1445 Z M236.396,21.1468 C234.075,21.1068 232.2849,20.5371 231.0116,19.425 C228.3162,17.0865 228.3405,12.7999 230.9731,10.429 C232.2711,9.26 234.1652,8.6746 236.6616,8.6746 L263.2968,8.6746 L263.2968,6.0923 L236.275,6.0923 C234.0416,6.0923 232.1324,6.4645 230.5479,7.2012 C228.9633,7.9456 227.7421,9.0315 226.8994,10.4667 C225.1847,13.3728 225.1802,16.6199 226.9691,19.4934 C227.8578,20.9285 229.1028,21.9921 230.7021,22.6908 C231.6401,23.0956 232.6665,23.3836 233.7814,23.5523 C234.9472,23.7283 235.8291,23.7311 236.9686,23.7311 L252.5212,23.7311 C254.8419,23.7711 256.632,24.3409 257.9053,25.4526 C260.6008,27.7915 260.5764,32.078 257.9439,34.4489 C256.6459,35.6177 254.7515,36.2033 252.2553,36.2033 L225.620286,36.2033 L225.620286,38.7857 L252.642,38.7857 C254.8759,38.7857 256.7845,38.4132 258.3694,37.6768 C259.9536,36.9324 261.1751,35.8464 262.0175,34.4112 C263.7322,31.5052 263.737,28.2578 261.9478,25.3846 C261.0591,23.9491 259.8145,22.8859 258.2149,22.1871 C257.0002,21.6627 255.6387,21.3345 254.1276,21.2075 C253.3498,21.1423 252.6632,21.1468 251.8746,21.1468 L236.396,21.1468 Z M120.3255,39.2894 L101.1029,6.0926 L104.6584,6.0926 L120.3255,33.8327 L135.954,6.0926 L139.4863,6.0926 L120.3255,39.2894 Z M315.5158,22.9579 C317.9661,22.9579 319.844,22.3779 321.1658,21.2032 C322.4876,20.0359 323.1523,18.2583 323.1523,15.8698 C323.1523,13.4893 322.5032,11.6961 321.2044,10.5058 C319.9058,9.3156 318.0123,8.7203 315.5158,8.7203 L292.3976,8.7203 L292.3976,22.9579 L315.5158,22.9579 Z M315.9022,6.0926 C318.1362,6.0926 320.045,6.4713 321.6299,7.2208 C323.2141,7.9785 324.4353,9.0837 325.2778,10.5447 C326.1202,11.9977 326.5454,13.7753 326.5454,15.8698 C326.5454,18.0188 326.0973,19.8196 325.2083,21.2727 C324.3194,22.7336 323.075,23.8156 321.4751,24.5268 C319.8752,25.2301 318.0202,25.5856 315.9022,25.5856 L292.3976,25.5856 L292.3976,38.5861 L289.0045,38.5861 L289.0045,6.0926 L315.9022,6.0926 Z M197.38,18.5477 L164.381,22.4442 L164.3799,22.262 C164.3799,18.8774 165.7586,15.2836 168.2679,12.8634 C169.7983,11.3792 171.6918,10.2431 173.9411,9.4391 C176.1901,8.6432 178.6866,8.2412 181.4306,8.2412 C185.3418,8.2412 188.6807,9.076 191.4556,10.7454 C194.2225,12.415 196.1628,14.8649 197.2601,18.0962 C197.3046,18.2535 197.344,18.4034 197.38,18.5477 Z" id="Stroke-9" stroke="#000000" stroke-width="2.8346" />
                <path d="M44.6963,28.1521 L47.8187,22.7436 L50.941,17.3353 L50.9444,17.3376 L50.9476,17.3393 L54.0844,11.9067 L57.2209,6.4738 C58.8795,3.6103 56.2277,-0.3412 53.0707,0.9698 L41.3171,5.8508 L29.6452,1.0035 C27.1459,-0.0342 24.8819,2.0881 24.8819,4.5293 C24.8819,4.9323 24.9431,5.3215 25.057,5.6869 C25.1707,6.0526 25.3371,6.395 25.5474,6.7057 L28.6171,12.0224 L31.6867,17.3393 C31.7066,17.3733 31.727,17.4071 31.7477,17.4405 C31.7683,17.4737 31.7893,17.5066 31.8109,17.5391 L34.8853,22.8646 L37.9601,28.1898 C38.4927,29.117 39.3507,29.7403 40.3074,29.9986 C41.2641,30.2571 42.3192,30.1505 43.2464,29.6179 C43.5613,29.437 43.8414,29.2182 44.0837,28.971 C44.3261,28.7238 44.5311,28.4477 44.6963,28.1521 Z M20.1982,14.9188 L23.3205,20.3273 L26.4429,25.7355 L26.4463,25.7333 L26.4494,25.7316 L29.5862,31.1642 L32.7228,36.597 C34.3813,39.4606 31.7295,43.4121 28.5726,42.1011 L16.819,37.2201 L5.1471,42.0673 C2.6477,43.1051 0.3837,40.9828 0.3837,38.5416 C0.3837,38.1385 0.4449,37.7493 0.5589,37.3839 C0.6726,37.0183 0.839,36.6758 1.049,36.3652 L4.1189,31.0485 L7.1886,25.7316 C7.2084,25.6975 7.2288,25.6638 7.2495,25.6304 C7.2702,25.5972 7.2912,25.5643 7.3127,25.5317 L10.3872,20.2063 L13.4619,14.8811 C13.9946,13.9539 14.8526,13.3306 15.8093,13.0723 C16.766,12.8138 17.821,12.9204 18.7483,13.453 C19.0632,13.6339 19.3432,13.8527 19.5856,14.0999 C19.828,14.3471 20.0329,14.6231 20.1982,14.9188 Z M69.6659,14.9188 L72.7882,20.3273 L75.9109,25.7355 L75.914,25.7333 L75.9174,25.7316 L79.0539,31.1642 L82.1905,36.597 C83.849,39.4606 81.1972,43.4121 78.0403,42.1011 L66.2867,37.2201 L54.6147,42.0673 C52.1154,43.1051 49.8514,40.9828 49.8514,38.5416 C49.8514,38.1385 49.9126,37.7493 50.0266,37.3839 C50.1403,37.0183 50.3066,36.6758 50.517,36.3652 L53.5866,31.0485 L56.6563,25.7316 C56.6761,25.6975 56.6965,25.6638 56.7172,25.6304 C56.7379,25.5972 56.7589,25.5643 56.7804,25.5317 L59.8551,20.2063 L62.9296,14.8811 C63.4622,13.9539 64.3203,13.3306 65.277,13.0723 C66.2337,12.8138 67.289,12.9204 68.2159,13.453 C68.5309,13.6339 68.8109,13.8527 69.0533,14.0999 C69.2957,14.3471 69.5006,14.6231 69.6659,14.9188 L69.6659,14.9188 Z" id="Fill-10" fill="#CC9933" />
            </g>
        </g>
    </g>
</svg>