<?xml version="1.0" standalone="no"?>
<!DOCTYPE svg PUBLIC "-//W3C//DTD SVG 20010904//EN"
 "http://www.w3.org/TR/2001/REC-SVG-20010904/DTD/svg10.dtd">
<svg version="1.0" xmlns="http://www.w3.org/2000/svg"
 width="2000.000000pt" height="2000.000000pt" viewBox="0 0 2000.000000 2000.000000"
 preserveAspectRatio="xMidYMid meet">
<metadata>
Created by potrace 1.11, written by Peter Selinger 2001-2013
</metadata>
<g transform="translate(0.000000,2000.000000) scale(0.100000,-0.100000)"
fill="#000000" stroke="none">
<path d="M9628 19995 c-2 -1 -70 -6 -153 -9 -82 -4 -166 -9 -185 -11 -19 -2
-75 -6 -125 -10 -49 -3 -103 -8 -120 -10 -16 -2 -59 -6 -95 -10 -36 -4 -78 -9
-95 -11 -53 -6 -119 -14 -150 -18 -16 -3 -52 -7 -80 -11 -43 -5 -267 -41 -314
-50 -9 -1 -36 -6 -61 -10 -54 -9 -70 -12 -135 -25 -27 -5 -61 -12 -75 -14
-177 -31 -563 -126 -825 -202 -337 -98 -829 -270 -1002 -349 -17 -8 -34 -15
-38 -15 -6 0 -47 -17 -140 -60 -22 -10 -60 -27 -85 -37 -220 -95 -663 -318
-881 -443 -266 -153 -515 -310 -776 -489 -101 -69 -452 -327 -463 -341 -3 -3
-48 -39 -100 -80 -52 -41 -102 -82 -111 -90 -8 -8 -29 -26 -45 -39 -36 -29
-150 -127 -184 -158 -14 -12 -36 -32 -50 -43 -206 -174 -670 -645 -891 -905
-19 -22 -36 -42 -39 -45 -3 -3 -28 -32 -55 -65 -28 -33 -52 -62 -55 -65 -3 -3
-54 -66 -113 -140 -59 -74 -111 -140 -116 -146 -4 -5 -41 -55 -82 -110 -40
-54 -77 -100 -81 -102 -4 -2 -8 -8 -8 -14 0 -5 -6 -15 -12 -22 -7 -8 -19 -22
-26 -32 -6 -11 -47 -68 -89 -129 -109 -158 -288 -435 -358 -557 -196 -339
-227 -396 -368 -678 -132 -265 -138 -279 -262 -570 -196 -463 -347 -913 -477
-1420 -27 -107 -52 -204 -54 -215 -2 -11 -6 -31 -9 -45 -3 -14 -7 -34 -9 -45
-2 -11 -12 -51 -21 -90 -9 -38 -18 -86 -21 -105 -3 -19 -7 -43 -10 -52 -3 -10
-7 -30 -10 -45 -3 -16 -7 -39 -10 -53 -3 -21 -30 -183 -50 -305 -2 -16 -6 -41
-9 -55 -2 -14 -7 -44 -10 -67 -3 -24 -7 -60 -10 -80 -3 -21 -7 -58 -10 -83 -3
-25 -7 -61 -10 -80 -2 -19 -7 -62 -10 -95 -3 -33 -8 -80 -10 -105 -3 -25 -7
-74 -10 -110 -3 -36 -7 -90 -10 -120 -27 -319 -27 -1122 0 -1425 2 -22 6 -74
10 -115 3 -41 7 -88 9 -105 2 -16 7 -66 11 -109 4 -43 8 -86 10 -95 1 -9 6
-43 10 -76 10 -88 34 -262 45 -325 5 -30 12 -71 15 -90 5 -38 6 -43 36 -210
44 -238 131 -616 191 -825 65 -230 86 -298 153 -500 47 -142 149 -428 165
-460 5 -11 19 -45 30 -75 11 -30 25 -65 30 -77 23 -54 33 -76 96 -223 109
-257 384 -802 504 -1000 5 -8 37 -62 71 -120 101 -171 271 -435 404 -625 70
-100 240 -330 259 -351 6 -7 20 -24 31 -40 28 -39 226 -285 250 -310 11 -12
29 -32 39 -45 16 -20 119 -140 151 -175 214 -239 563 -587 780 -779 43 -38 86
-77 95 -85 9 -8 38 -33 64 -55 27 -22 59 -49 70 -60 30 -30 344 -279 461 -366
272 -205 689 -480 955 -632 343 -196 741 -398 980 -499 25 -10 53 -23 62 -28
44 -24 393 -163 583 -232 356 -129 930 -298 1183 -348 26 -5 56 -12 67 -14 20
-5 288 -60 342 -71 76 -14 341 -56 443 -70 220 -30 232 -31 335 -40 44 -4 88
-9 97 -11 10 -1 59 -6 110 -9 51 -4 109 -8 128 -10 232 -26 1095 -26 1420 0
189 15 382 35 495 50 22 2 60 7 85 10 77 9 117 15 310 46 157 25 169 28 200
34 14 3 36 7 50 10 82 13 462 97 590 130 8 2 58 15 110 28 283 73 832 251
1025 331 17 7 57 23 90 36 81 31 368 152 449 190 36 16 68 30 71 31 32 6 589
294 765 396 76 43 146 84 160 93 16 11 116 71 190 116 116 71 495 327 537 363
7 6 16 11 22 11 5 0 11 3 13 8 2 4 73 60 158 124 141 106 369 288 445 356 17
15 62 54 100 87 38 33 77 67 86 75 9 8 63 58 120 110 135 124 417 406 545 545
140 152 151 164 198 219 22 26 49 58 59 70 11 11 35 41 55 65 21 24 48 56 61
70 13 14 44 53 70 86 25 33 53 69 62 80 38 44 177 229 224 295 28 39 56 78 63
86 39 42 288 419 413 624 147 241 236 403 381 690 120 237 153 307 219 457 11
24 28 62 38 85 133 296 310 787 425 1183 49 169 151 569 162 635 3 14 11 52
19 85 8 33 17 76 20 95 3 19 10 58 15 85 6 28 12 61 15 75 7 35 33 188 39 230
3 19 12 78 20 130 8 52 17 115 20 140 3 25 7 61 10 80 6 39 12 94 21 190 3 36
8 79 10 96 3 17 7 71 10 120 3 49 8 103 10 119 27 208 27 1070 -1 1425 -12
155 -24 290 -29 325 -3 17 -7 57 -10 90 -3 33 -10 89 -15 125 -5 36 -12 86
-15 111 -3 25 -8 57 -10 70 -2 13 -6 40 -9 59 -14 92 -19 123 -37 230 -80 463
-205 956 -358 1417 -56 168 -151 434 -171 478 -5 11 -19 45 -30 75 -11 30 -24
64 -29 75 -23 52 -41 95 -66 155 -243 584 -664 1336 -1032 1845 -24 33 -51 71
-60 85 -20 29 -193 260 -208 277 -5 6 -21 26 -35 44 -36 47 -199 249 -224 278
-12 12 -28 31 -36 40 -8 9 -30 35 -49 56 -190 223 -545 589 -771 795 -57 52
-111 102 -120 110 -9 8 -47 42 -85 75 -39 33 -72 62 -75 65 -3 4 -70 59 -150
124 -80 65 -154 126 -165 135 -37 31 -370 278 -400 297 -16 10 -35 23 -42 29
-7 5 -18 15 -25 20 -25 19 -363 242 -393 259 -16 9 -57 34 -90 56 -33 22 -69
44 -80 50 -11 5 -38 21 -60 35 -22 13 -58 34 -80 46 -22 12 -48 28 -57 37 -10
8 -18 12 -18 8 0 -4 -13 2 -29 13 -16 12 -34 21 -39 21 -6 0 -12 3 -14 8 -4 9
-26 21 -343 181 -245 124 -326 164 -465 224 -25 10 -73 32 -108 48 -34 16 -65
29 -68 29 -3 0 -24 9 -47 19 -23 11 -121 49 -217 86 -96 36 -184 70 -195 75
-34 16 -434 146 -565 185 -69 20 -145 42 -170 50 -61 18 -435 111 -485 121
-22 4 -44 9 -50 10 -19 6 -260 56 -310 64 -27 5 -102 18 -165 29 -63 11 -128
22 -145 25 -16 3 -50 7 -75 10 -25 3 -54 7 -65 10 -11 2 -45 7 -76 10 -31 4
-66 8 -77 11 -11 2 -53 6 -94 10 -40 3 -84 8 -98 10 -14 2 -59 7 -100 10 -41
4 -88 9 -105 11 -16 2 -77 6 -135 10 -58 3 -125 8 -150 10 -51 5 -917 14 -922
9z"/>
</g>
</svg>
